<svg width="24" height="24" viewBox="0 0 24 24" fill="none" xmlns="http://www.w3.org/2000/svg">
<path d="M19.7589 2H4.24107C3.01339 2 2 3.01339 2 4.24107V19.7589C2 20.9866 3.01339 22 4.24107 22H19.7589C20.9866 22 22 20.9866 22 19.7589V4.24107C22 3.01339 20.9866 2 19.7589 2ZM17.7321 14.692C17.7321 14.8795 17.5714 14.9598 17.3839 15.0402C16.6384 15.3616 15.8393 15.6518 14.9821 15.6518C13.7812 15.6518 13.2232 14.9063 11.7813 14.9063C10.7411 14.9063 9.64732 15.2812 8.76786 15.6786C8.71429 15.7054 8.66071 15.7054 8.60714 15.7321V17.7589C8.60714 17.8393 8.60714 17.9196 8.58036 17.9732V18.0268C8.47321 18.4018 8.125 18.6652 7.72768 18.6652C7.22321 18.6652 6.82143 18.2634 6.82143 17.7589V8C6.47321 7.73214 6.23661 7.30804 6.23661 6.82589C6.23661 6 6.90179 5.33036 7.73214 5.33036C8.55804 5.33036 9.22768 5.99554 9.22768 6.82589C9.22768 7.30804 9.01339 7.73214 8.64286 8V8.82589C8.72321 8.79911 8.80357 8.77232 8.88393 8.71875C9.70982 8.37054 10.6964 8.08036 11.6295 8.08036C12.6429 8.08036 13.442 8.34821 14.3482 8.69196C14.5357 8.77232 14.7232 8.79911 14.933 8.79911C15.9464 8.79911 17.067 8.08036 17.3348 8.08036C17.5491 8.08036 17.7366 8.24107 17.7366 8.42857V14.692H17.7321Z" fill="white"/>
</svg>
